IKResults
version=1
nRows=25
nColumns=24
inDegrees=yes

Units are S.I. units (second, meters, Newtons, ...)
If the header above contains a line with 'inDegrees', this indicates whether rotational values are in degrees (yes) or radians (no).

endheader
time	pelvis_tilt	pelvis_list	pelvis_rotation	pelvis_tx	pelvis_ty	pelvis_tz	hip_flexion_r	hip_adduction_r	hip_rotation_r	knee_angle_r	ankle_angle_r	subtalar_angle_r	mtp_angle_r	hip_flexion_l	hip_adduction_l	hip_rotation_l	knee_angle_l	ankle_angle_l	subtalar_angle_l	mtp_angle_l	lumbar_extension	lumbar_bending	lumbar_rotation
0.610000	13.438586	3.236332	-179.761003	0.283845	0.680456	-1.206963	56.377657	-24.998390	-21.348534	-77.327546	26.477968	4.469562	0.000000	60.111556	-30.424583	-13.419458	-77.737482	27.751001	15.274275	0.000000	-8.031652	2.464288	1.752086
0.615000	13.491166	3.180053	-179.667430	0.285054	0.674832	-1.206783	57.268916	-25.392553	-21.000828	-78.617974	27.006503	4.452478	0.000000	61.056186	-30.510640	-13.025013	-78.966313	28.260856	15.384844	0.000000	-8.189848	2.433157	1.648353
0.620000	13.448389	3.016952	-179.522038	0.286122	0.669318	-1.206100	58.084226	-25.973391	-20.601255	-79.911918	27.547125	4.604538	0.000000	61.837369	-30.449526	-12.735214	-80.211051	28.743245	15.377789	0.000000	-8.420295	2.304606	1.567005
0.625000	13.547863	3.061334	-179.541049	0.287472	0.663535	-1.206366	59.043105	-26.151416	-20.252478	-81.181389	28.078093	4.620209	0.000000	62.875107	-30.718570	-12.270766	-81.394335	29.288470	15.545940	0.000000	-8.519028	2.301209	1.686452
0.630000	13.545552	3.036693	-179.498716	0.288650	0.657862	-1.206124	59.882449	-26.491955	-19.895369	-82.430391	28.582649	4.692135	0.000000	63.778320	-30.862686	-11.880190	-82.645142	29.745337	15.609048	0.000000	-8.628768	2.098517	2.237413
0.635000	13.538823	2.940349	-179.438598	0.289771	0.652195	-1.205977	60.745258	-26.887510	-19.493099	-83.681739	29.067343	4.763479	0.000000	64.609952	-30.951733	-11.560925	-83.831793	30.249621	15.734815	0.000000	-8.833575	2.032040	2.167442
0.640000	13.549998	2.886655	-179.401439	0.290847	0.646532	-1.205894	61.602276	-27.225253	-19.107998	-84.900414	29.548008	4.862470	0.000000	65.473424	-31.102132	-11.225462	-85.010219	30.707061	15.847623	0.000000	-9.020446	2.002636	2.105304
0.645000	13.491490	2.755192	-179.329945	0.291719	0.641004	-1.205348	62.378957	-27.680001	-18.705232	-86.072822	30.081766	4.913908	0.000000	66.215297	-31.148812	-10.985210	-86.245650	31.064006	15.829393	0.000000	-9.268356	1.958456	2.034261
0.650000	13.556453	2.803660	-179.429936	0.292886	0.635269	-1.205684	63.317765	-27.795120	-18.335072	-87.282272	30.457252	4.978788	0.000000	67.206423	-31.505588	-10.565193	-87.504090	31.409980	15.892063	0.000000	-9.407960	1.985951	2.144778
0.655000	13.545110	2.819072	-179.495306	0.293815	0.629693	-1.205647	64.156876	-28.019983	-18.033543	-88.472618	30.785507	4.882073	0.000000	68.038173	-31.783497	-10.214191	-88.593527	31.912793	15.976442	0.000000	-9.613352	2.032543	2.218820
0.660000	13.448881	2.735153	-179.484908	0.294567	0.624270	-1.205188	64.870354	-28.387968	-17.601303	-89.606784	31.287560	5.173489	0.000000	68.711304	-31.919439	-9.968131	-89.754201	32.377979	16.068303	0.000000	-9.899935	2.034090	2.156988
0.665000	13.492208	2.837219	-179.610983	0.295675	0.618593	-1.205708	65.712289	-28.412326	-17.306758	-90.722601	31.698487	5.221500	0.000000	69.681485	-32.314109	-9.489400	-90.878888	32.798072	16.230496	0.000000	-10.061322	2.100256	2.290489
0.670000	13.378293	2.800011	-179.618571	0.296349	0.613225	-1.205354	66.374883	-28.749960	-16.967287	-91.818931	32.078957	5.418669	0.000000	70.346238	-32.494398	-9.190644	-91.988744	33.280002	16.367452	0.000000	-10.353473	2.131053	2.333804
0.675000	13.412264	2.931879	-179.783171	0.297369	0.607601	-1.205811	67.191394	-28.732832	-16.701303	-92.905277	32.476313	5.446885	0.000000	71.314867	-32.929577	-8.675632	-93.078945	33.665297	16.553171	0.000000	-10.524486	2.233671	2.498065
0.680000	13.287556	2.930275	-179.831850	0.297945	0.602273	-1.205433	67.812868	-29.006591	-16.390804	-93.980011	32.934612	5.583650	0.000000	72.002259	-33.167319	-8.371495	-94.297503	34.180741	16.628998	0.000000	-10.826393	2.313753	2.565911
0.685000	13.317236	3.083022	-180.031554	0.298865	0.596712	-1.205930	68.604270	-28.959645	-16.164016	-95.044076	33.297445	5.625921	0.000000	72.982988	-33.646858	-7.826969	-95.394575	34.531200	16.800637	0.000000	-10.990350	2.442487	2.774097
0.690000	13.208793	3.060243	-180.048285	0.299468	0.591387	-1.205531	69.265671	-29.269482	-15.824721	-96.092949	33.643190	5.765689	0.000000	73.666424	-33.818304	-7.460304	-96.495039	34.912668	17.002367	0.000000	-11.274030	2.489793	2.821086
0.695000	13.248089	3.212987	-180.206951	0.300371	0.585891	-1.206046	70.020708	-29.244214	-15.625677	-97.099370	33.997718	5.848970	0.000000	74.666064	-34.258110	-6.903530	-97.571629	35.258543	17.233462	0.000000	-11.429522	2.599128	3.021634
0.700000	13.186926	3.298364	-180.294944	0.301046	0.580485	-1.206123	70.694074	-29.368635	-15.366488	-98.126519	34.402013	5.969244	0.000000	75.480404	-34.613827	-6.460189	-98.830138	35.868581	17.581120	0.000000	-11.678529	2.695802	3.142161
0.705000	13.166331	3.378407	-180.359100	0.301754	0.575149	-1.206094	71.396209	-29.531435	-15.128469	-99.126184	34.715488	6.162389	0.000000	76.358170	-34.885728	-5.964803	-99.859714	36.199225	17.744230	0.000000	-11.876523	2.797507	3.263821
0.710000	13.165133	3.435086	-180.419192	0.302444	0.569806	-1.206029	72.126999	-29.711580	-14.870602	-100.121599	35.059798	6.291061	0.000000	77.236825	-35.132376	-5.506227	-100.841007	36.566922	17.849499	0.000000	-12.040540	2.856414	3.429883
0.715000	13.163662	3.502229	-180.453075	0.303162	0.564501	-1.206002	72.845934	-29.895958	-14.611294	-101.106210	35.340354	6.328804	0.000000	78.133348	-35.348555	-5.001768	-101.841157	36.883003	18.027568	0.000000	-12.215438	2.937240	3.535098
0.720000	13.151034	3.536851	-180.465965	0.303879	0.559229	-1.205954	73.569504	-30.117129	-14.343395	-102.066644	35.640526	6.550973	0.000000	78.986479	-35.515770	-4.521034	-102.812649	37.198494	18.201095	0.000000	-12.399446	2.994246	3.599521
0.725000	13.079055	3.503302	-180.384744	0.304360	0.554124	-1.205438	74.223851	-30.508175	-14.005213	-103.013523	35.943620	6.765547	0.000000	79.694873	-35.544628	-4.152288	-103.780760	37.529325	18.358283	0.000000	-12.630749	3.057282	3.510284
0.730000	13.151855	3.589771	-180.450906	0.305207	0.548761	-1.205786	75.047809	-30.603715	-13.752981	-103.983442	36.203616	6.858926	0.000000	80.711423	-35.773210	-3.562716	-104.715537	37.762032	18.452243	0.000000	-12.733605	3.102467	3.656579
